<?xml version="1.0" encoding="UTF-8" standalone="no"?>
<!DOCTYPE svg PUBLIC "-//W3C//DTD SVG 1.1//EN"
 "http://www.w3.org/Graphics/SVG/1.1/DTD/svg11.dtd">
<!-- Generated by graphviz version 2.40.1 (20161225.0304)
 -->
<!-- Title: dependencies Pages: 1 -->
<svg width="3902pt" height="428pt"
 viewBox="0.00 0.00 3902.00 428.00" xmlns="http://www.w3.org/2000/svg" xmlns:xlink="http://www.w3.org/1999/xlink">
<g id="graph0" class="graph" transform="scale(1 1) rotate(0) translate(4 424)">
<title>dependencies</title>
<polygon fill="#ffffff" stroke="transparent" points="-4,4 -4,-424 3898,-424 3898,4 -4,4"/>
<text text-anchor="start" x="1926.0091" y="-42.4" font-family="sans-serif" font-weight="bold" font-size="14.00" fill="#000000">Legend</text>
<polygon fill="#ffffb3" stroke="transparent" points="1713,-10 1713,-30 1733,-30 1733,-10 1713,-10"/>
<text text-anchor="start" x="1736.629" y="-15.4" font-family="sans-serif" font-size="14.00" fill="#000000"> &#160;Declarations</text>
<polygon fill="#8dd3c7" stroke="transparent" points="1826,-10 1826,-30 1846,-30 1846,-10 1826,-10"/>
<text text-anchor="start" x="1849.7251" y="-15.4" font-family="sans-serif" font-size="14.00" fill="#000000"> &#160;Module</text>
<polygon fill="#80b1d3" stroke="transparent" points="1912,-10 1912,-30 1932,-30 1932,-10 1912,-10"/>
<text text-anchor="start" x="1935.7812" y="-15.4" font-family="sans-serif" font-size="14.00" fill="#000000"> &#160;Bootstrap</text>
<polygon fill="#fdb462" stroke="transparent" points="2009,-10 2009,-30 2029,-30 2029,-10 2009,-10"/>
<text text-anchor="start" x="2032.6732" y="-15.4" font-family="sans-serif" font-size="14.00" fill="#000000"> &#160;Providers</text>
<polygon fill="#fb8072" stroke="transparent" points="2105,-10 2105,-30 2125,-30 2125,-10 2105,-10"/>
<text text-anchor="start" x="2128.7258" y="-15.4" font-family="sans-serif" font-size="14.00" fill="#000000"> &#160;Exports</text>
<g id="clust1" class="cluster">
<title>cluster_AppModule</title>
<polygon fill="none" stroke="#000000" stroke-dasharray="1,5" points="266,-214 266,-412 648,-412 648,-214 266,-214"/>
</g>
<g id="clust2" class="cluster">
<title>cluster_AppModule_declarations</title>
<polygon fill="none" stroke="#000000" points="518,-222 518,-274 640,-274 640,-222 518,-222"/>
</g>
<g id="clust4" class="cluster">
<title>cluster_AppModule_imports</title>
<polygon fill="none" stroke="#000000" points="274,-222 274,-274 510,-274 510,-222 274,-222"/>
</g>
<g id="clust6" class="cluster">
<title>cluster_AppModule_bootstrap</title>
<polygon fill="none" stroke="#000000" points="376,-352 376,-404 500,-404 500,-352 376,-352"/>
</g>
<g id="clust14" class="cluster">
<title>cluster_ClientsModule</title>
<polygon fill="none" stroke="#000000" stroke-dasharray="1,5" points="980,-70 980,-198 1717,-198 1717,-70 980,-70"/>
</g>
<g id="clust15" class="cluster">
<title>cluster_ClientsModule_declarations</title>
<polygon fill="none" stroke="#000000" points="988,-78 988,-130 1425,-130 1425,-78 988,-78"/>
</g>
<g id="clust19" class="cluster">
<title>cluster_ClientsModule_imports</title>
<polygon fill="none" stroke="#000000" points="1433,-78 1433,-130 1709,-130 1709,-78 1433,-78"/>
</g>
<g id="clust29" class="cluster">
<title>cluster_LoginModule</title>
<polygon fill="none" stroke="#000000" stroke-dasharray="1,5" points="664,-70 664,-282 972,-282 972,-70 664,-70"/>
</g>
<g id="clust30" class="cluster">
<title>cluster_LoginModule_declarations</title>
<polygon fill="none" stroke="#000000" points="834,-78 834,-130 964,-130 964,-78 834,-78"/>
</g>
<g id="clust32" class="cluster">
<title>cluster_LoginModule_imports</title>
<polygon fill="none" stroke="#000000" points="672,-78 672,-130 826,-130 826,-78 672,-78"/>
</g>
<g id="clust33" class="cluster">
<title>cluster_LoginModule_exports</title>
<polygon fill="none" stroke="#000000" points="682,-222 682,-274 816,-274 816,-222 682,-222"/>
</g>
<g id="clust42" class="cluster">
<title>cluster_PageNotFoundModule</title>
<polygon fill="none" stroke="#000000" stroke-dasharray="1,5" points="3476,-70 3476,-198 3886,-198 3886,-70 3476,-70"/>
</g>
<g id="clust43" class="cluster">
<title>cluster_PageNotFoundModule_declarations</title>
<polygon fill="none" stroke="#000000" points="3696,-78 3696,-130 3878,-130 3878,-78 3696,-78"/>
</g>
<g id="clust45" class="cluster">
<title>cluster_PageNotFoundModule_imports</title>
<polygon fill="none" stroke="#000000" points="3484,-78 3484,-130 3688,-130 3688,-78 3484,-78"/>
</g>
<g id="clust55" class="cluster">
<title>cluster_PrestationsModule</title>
<polygon fill="none" stroke="#000000" stroke-dasharray="1,5" points="2760,-70 2760,-198 3468,-198 3468,-70 2760,-70"/>
</g>
<g id="clust56" class="cluster">
<title>cluster_PrestationsModule_declarations</title>
<polygon fill="none" stroke="#000000" points="2958,-78 2958,-130 3460,-130 3460,-78 2958,-78"/>
</g>
<g id="clust60" class="cluster">
<title>cluster_PrestationsModule_imports</title>
<polygon fill="none" stroke="#000000" points="2768,-78 2768,-130 2950,-130 2950,-78 2768,-78"/>
</g>
<g id="clust70" class="cluster">
<title>cluster_SharedModule</title>
<polygon fill="none" stroke="#000000" stroke-dasharray="1,5" points="1725,-138 1725,-206 2752,-206 2752,-138 1725,-138"/>
</g>
<g id="clust71" class="cluster">
<title>cluster_SharedModule_declarations</title>
<polygon fill="none" stroke="#000000" points="2250,-146 2250,-198 2744,-198 2744,-146 2250,-146"/>
</g>
<g id="clust77" class="cluster">
<title>cluster_SharedModule_exports</title>
<polygon fill="none" stroke="#000000" points="1733,-146 1733,-198 2242,-198 2242,-146 1733,-146"/>
</g>
<g id="clust80" class="cluster">
<title>cluster_UiModule</title>
<polygon fill="none" stroke="#000000" stroke-dasharray="1,5" points="8,-138 8,-206 656,-206 656,-138 8,-138"/>
</g>
<g id="clust81" class="cluster">
<title>cluster_UiModule_declarations</title>
<polygon fill="none" stroke="#000000" points="138,-146 138,-198 648,-198 648,-146 138,-146"/>
</g>
<g id="clust87" class="cluster">
<title>cluster_UiModule_exports</title>
<polygon fill="none" stroke="#000000" points="16,-146 16,-198 130,-198 130,-146 16,-146"/>
</g>
<!-- AppComponent -->
<g id="node1" class="node">
<title>AppComponent</title>
<polygon fill="#ffffb3" stroke="#000000" points="631.9399,-266 526.0601,-266 526.0601,-230 631.9399,-230 631.9399,-266"/>
<text text-anchor="middle" x="579" y="-243.8" font-family="Times,serif" font-size="14.00" fill="#000000">AppComponent</text>
</g>
<!-- AppModule -->
<g id="node2" class="node">
<title>AppModule</title>
<polygon fill="#8dd3c7" stroke="#000000" points="479.6571,-331 476.6571,-335 455.6571,-335 452.6571,-331 396.3429,-331 396.3429,-295 479.6571,-295 479.6571,-331"/>
<text text-anchor="middle" x="438" y="-308.8" font-family="Times,serif" font-size="14.00" fill="#000000">AppModule</text>
</g>
<!-- AppComponent&#45;&gt;AppModule -->
<g id="edge1" class="edge">
<title>AppComponent&#45;&gt;AppModule</title>
<path fill="none" stroke="#000000" d="M579,-266.1061C579,-285.3391 579,-313 579,-313 579,-313 489.9229,-313 489.9229,-313"/>
<polygon fill="#000000" stroke="#000000" points="489.9229,-309.5001 479.9229,-313 489.9229,-316.5001 489.9229,-309.5001"/>
</g>
<!-- AppComponent  -->
<g id="node5" class="node">
<title>AppComponent </title>
<polygon fill="#80b1d3" stroke="#000000" points="492.439,-396 383.561,-396 383.561,-360 492.439,-360 492.439,-396"/>
<text text-anchor="middle" x="438" y="-373.8" font-family="Times,serif" font-size="14.00" fill="#000000">AppComponent </text>
</g>
<!-- AppModule&#45;&gt;AppComponent  -->
<g id="edge4" class="edge">
<title>AppModule&#45;&gt;AppComponent </title>
<path fill="none" stroke="#000000" stroke-dasharray="1,5" d="M438,-331.1061C438,-331.1061 438,-349.991 438,-349.991"/>
<polygon fill="#000000" stroke="#000000" points="434.5001,-349.9909 438,-359.991 441.5001,-349.991 434.5001,-349.9909"/>
</g>
<!-- AppRoutingModule -->
<g id="node3" class="node">
<title>AppRoutingModule</title>
<polygon fill="#8dd3c7" stroke="#000000" points="502.2744,-266 499.2744,-270 478.2744,-270 475.2744,-266 373.7256,-266 373.7256,-230 502.2744,-230 502.2744,-266"/>
<text text-anchor="middle" x="438" y="-243.8" font-family="Times,serif" font-size="14.00" fill="#000000">AppRoutingModule</text>
</g>
<!-- AppRoutingModule&#45;&gt;AppModule -->
<g id="edge2" class="edge">
<title>AppRoutingModule&#45;&gt;AppModule</title>
<path fill="none" stroke="#000000" d="M438,-266.1061C438,-266.1061 438,-284.991 438,-284.991"/>
<polygon fill="#000000" stroke="#000000" points="434.5001,-284.9909 438,-294.991 441.5001,-284.991 434.5001,-284.9909"/>
</g>
<!-- UiModule -->
<g id="node4" class="node">
<title>UiModule</title>
<polygon fill="#8dd3c7" stroke="#000000" points="355.5484,-266 352.5484,-270 331.5484,-270 328.5484,-266 282.4516,-266 282.4516,-230 355.5484,-230 355.5484,-266"/>
<text text-anchor="middle" x="319" y="-243.8" font-family="Times,serif" font-size="14.00" fill="#000000">UiModule</text>
</g>
<!-- UiModule&#45;&gt;AppModule -->
<g id="edge3" class="edge">
<title>UiModule&#45;&gt;AppModule</title>
<path fill="none" stroke="#000000" d="M319,-266.1061C319,-285.3391 319,-313 319,-313 319,-313 386.0451,-313 386.0451,-313"/>
<polygon fill="#000000" stroke="#000000" points="386.0451,-316.5001 396.0451,-313 386.045,-309.5001 386.0451,-316.5001"/>
</g>
<!-- UiComponent  -->
<g id="node36" class="node">
<title>UiComponent </title>
<polygon fill="#fb8072" stroke="#000000" points="122.3297,-190 23.6703,-190 23.6703,-154 122.3297,-154 122.3297,-190"/>
<text text-anchor="middle" x="73" y="-167.8" font-family="Times,serif" font-size="14.00" fill="#000000">UiComponent </text>
</g>
<!-- UiModule&#45;&gt;UiComponent  -->
<g id="edge33" class="edge">
<title>UiModule&#45;&gt;UiComponent </title>
<path fill="none" stroke="#000000" stroke-dasharray="5,2" d="M282.4369,-254C213.909,-254 73,-254 73,-254 73,-254 73,-200.1985 73,-200.1985"/>
<polygon fill="#000000" stroke="#000000" points="76.5001,-200.1984 73,-190.1985 69.5001,-200.1985 76.5001,-200.1984"/>
</g>
<!-- ClientComponent -->
<g id="node6" class="node">
<title>ClientComponent</title>
<polygon fill="#ffffb3" stroke="#000000" points="1416.5563,-122 1301.4437,-122 1301.4437,-86 1416.5563,-86 1416.5563,-122"/>
<text text-anchor="middle" x="1359" y="-99.8" font-family="Times,serif" font-size="14.00" fill="#000000">ClientComponent</text>
</g>
<!-- ClientsModule -->
<g id="node9" class="node">
<title>ClientsModule</title>
<polygon fill="#8dd3c7" stroke="#000000" points="1408.7176,-190 1405.7176,-194 1384.7176,-194 1381.7176,-190 1309.2824,-190 1309.2824,-154 1408.7176,-154 1408.7176,-190"/>
<text text-anchor="middle" x="1359" y="-167.8" font-family="Times,serif" font-size="14.00" fill="#000000">ClientsModule</text>
</g>
<!-- ClientComponent&#45;&gt;ClientsModule -->
<g id="edge5" class="edge">
<title>ClientComponent&#45;&gt;ClientsModule</title>
<path fill="none" stroke="#000000" d="M1359,-122.2228C1359,-122.2228 1359,-143.7269 1359,-143.7269"/>
<polygon fill="#000000" stroke="#000000" points="1355.5001,-143.7269 1359,-153.7269 1362.5001,-143.727 1355.5001,-143.7269"/>
</g>
<!-- ClientsComponent -->
<g id="node7" class="node">
<title>ClientsComponent</title>
<polygon fill="#ffffb3" stroke="#000000" points="1283.5,-122 1162.5,-122 1162.5,-86 1283.5,-86 1283.5,-122"/>
<text text-anchor="middle" x="1223" y="-99.8" font-family="Times,serif" font-size="14.00" fill="#000000">ClientsComponent</text>
</g>
<!-- ClientsComponent&#45;&gt;ClientsModule -->
<g id="edge6" class="edge">
<title>ClientsComponent&#45;&gt;ClientsModule</title>
<path fill="none" stroke="#000000" d="M1223,-122.2228C1223,-142.3652 1223,-172 1223,-172 1223,-172 1299.1309,-172 1299.1309,-172"/>
<polygon fill="#000000" stroke="#000000" points="1299.1309,-175.5001 1309.1309,-172 1299.1308,-168.5001 1299.1309,-175.5001"/>
</g>
<!-- ListeClientsComponent -->
<g id="node8" class="node">
<title>ListeClientsComponent</title>
<polygon fill="#ffffb3" stroke="#000000" points="1144.493,-122 995.507,-122 995.507,-86 1144.493,-86 1144.493,-122"/>
<text text-anchor="middle" x="1070" y="-99.8" font-family="Times,serif" font-size="14.00" fill="#000000">ListeClientsComponent</text>
</g>
<!-- ListeClientsComponent&#45;&gt;ClientsModule -->
<g id="edge7" class="edge">
<title>ListeClientsComponent&#45;&gt;ClientsModule</title>
<path fill="none" stroke="#000000" d="M1070,-122.2479C1070,-145.0179 1070,-181 1070,-181 1070,-181 1299.3191,-181 1299.3191,-181"/>
<polygon fill="#000000" stroke="#000000" points="1299.3192,-184.5001 1309.3191,-181 1299.3191,-177.5001 1299.3192,-184.5001"/>
</g>
<!-- ClientsRoutingModule -->
<g id="node10" class="node">
<title>ClientsRoutingModule</title>
<polygon fill="#8dd3c7" stroke="#000000" points="1585.3356,-122 1582.3356,-126 1561.3356,-126 1558.3356,-122 1440.6644,-122 1440.6644,-86 1585.3356,-86 1585.3356,-122"/>
<text text-anchor="middle" x="1513" y="-99.8" font-family="Times,serif" font-size="14.00" fill="#000000">ClientsRoutingModule</text>
</g>
<!-- ClientsRoutingModule&#45;&gt;ClientsModule -->
<g id="edge8" class="edge">
<title>ClientsRoutingModule&#45;&gt;ClientsModule</title>
<path fill="none" stroke="#000000" d="M1513,-122.2667C1513,-140.5552 1513,-166 1513,-166 1513,-166 1418.9994,-166 1418.9994,-166"/>
<polygon fill="#000000" stroke="#000000" points="1418.9994,-162.5001 1408.9994,-166 1418.9994,-169.5001 1418.9994,-162.5001"/>
</g>
<!-- SharedModule -->
<g id="node11" class="node">
<title>SharedModule</title>
<polygon fill="#8dd3c7" stroke="#000000" points="1701.4231,-122 1698.4231,-126 1677.4231,-126 1674.4231,-122 1602.5769,-122 1602.5769,-86 1701.4231,-86 1701.4231,-122"/>
<text text-anchor="middle" x="1652" y="-99.8" font-family="Times,serif" font-size="14.00" fill="#000000">SharedModule</text>
</g>
<!-- SharedModule&#45;&gt;ClientsModule -->
<g id="edge9" class="edge">
<title>SharedModule&#45;&gt;ClientsModule</title>
<path fill="none" stroke="#000000" d="M1652,-122.2921C1652,-144.2057 1652,-178 1652,-178 1652,-178 1418.7035,-178 1418.7035,-178"/>
<polygon fill="#000000" stroke="#000000" points="1418.7035,-174.5001 1408.7035,-178 1418.7034,-181.5001 1418.7035,-174.5001"/>
</g>
<!-- PrestationsModule -->
<g id="node22" class="node">
<title>PrestationsModule</title>
<polygon fill="#8dd3c7" stroke="#000000" points="3097.4832,-190 3094.4832,-194 3073.4832,-194 3070.4832,-190 2976.5168,-190 2976.5168,-154 3097.4832,-154 3097.4832,-190"/>
<text text-anchor="middle" x="3037" y="-167.8" font-family="Times,serif" font-size="14.00" fill="#000000">PrestationsModule</text>
</g>
<!-- SharedModule&#45;&gt;PrestationsModule -->
<g id="edge19" class="edge">
<title>SharedModule&#45;&gt;PrestationsModule</title>
<path fill="none" stroke="#000000" d="M1701.2186,-90C1915.4472,-90 2755.9453,-90 2755.9453,-90 2755.9453,-90 2755.9453,-178 2755.9453,-178 2755.9453,-178 2966.3613,-178 2966.3613,-178"/>
<polygon fill="#000000" stroke="#000000" points="2966.3614,-181.5001 2976.3613,-178 2966.3613,-174.5001 2966.3614,-181.5001"/>
</g>
<!-- AddRowComponent  -->
<g id="node28" class="node">
<title>AddRowComponent </title>
<polygon fill="#fb8072" stroke="#000000" points="2233.8827,-190 2098.1173,-190 2098.1173,-154 2233.8827,-154 2233.8827,-190"/>
<text text-anchor="middle" x="2166" y="-167.8" font-family="Times,serif" font-size="14.00" fill="#000000">AddRowComponent </text>
</g>
<!-- SharedModule&#45;&gt;AddRowComponent  -->
<g id="edge24" class="edge">
<title>SharedModule&#45;&gt;AddRowComponent </title>
<path fill="none" stroke="#000000" stroke-dasharray="5,2" d="M1701.2845,-108C1829.9345,-108 2166,-108 2166,-108 2166,-108 2166,-143.8314 2166,-143.8314"/>
<polygon fill="#000000" stroke="#000000" points="2162.5001,-143.8313 2166,-153.8314 2169.5001,-143.8314 2162.5001,-143.8313"/>
</g>
<!-- StateDirective  -->
<g id="node29" class="node">
<title>StateDirective </title>
<polygon fill="#fb8072" stroke="#000000" points="2080.5767,-190 1981.4233,-190 1981.4233,-154 2080.5767,-154 2080.5767,-190"/>
<text text-anchor="middle" x="2031" y="-167.8" font-family="Times,serif" font-size="14.00" fill="#000000">StateDirective </text>
</g>
<!-- SharedModule&#45;&gt;StateDirective  -->
<g id="edge25" class="edge">
<title>SharedModule&#45;&gt;StateDirective </title>
<path fill="none" stroke="#000000" stroke-dasharray="5,2" d="M1701.5476,-112C1804.2801,-112 2031,-112 2031,-112 2031,-112 2031,-143.998 2031,-143.998"/>
<polygon fill="#000000" stroke="#000000" points="2027.5001,-143.998 2031,-153.998 2034.5001,-143.9981 2027.5001,-143.998"/>
</g>
<!-- TableauComponent  -->
<g id="node30" class="node">
<title>TableauComponent </title>
<polygon fill="#fb8072" stroke="#000000" points="1962.9194,-190 1833.0806,-190 1833.0806,-154 1962.9194,-154 1962.9194,-190"/>
<text text-anchor="middle" x="1898" y="-167.8" font-family="Times,serif" font-size="14.00" fill="#000000">TableauComponent </text>
</g>
<!-- SharedModule&#45;&gt;TableauComponent  -->
<g id="edge26" class="edge">
<title>SharedModule&#45;&gt;TableauComponent </title>
<path fill="none" stroke="#000000" stroke-dasharray="5,2" d="M1701.4859,-115C1773.3219,-115 1898,-115 1898,-115 1898,-115 1898,-143.9648 1898,-143.9648"/>
<polygon fill="#000000" stroke="#000000" points="1894.5001,-143.9648 1898,-153.9648 1901.5001,-143.9649 1894.5001,-143.9648"/>
</g>
<!-- TotalPipe  -->
<g id="node31" class="node">
<title>TotalPipe </title>
<polygon fill="#fb8072" stroke="#000000" points="1814.9362,-190 1741.0638,-190 1741.0638,-154 1814.9362,-154 1814.9362,-190"/>
<text text-anchor="middle" x="1778" y="-167.8" font-family="Times,serif" font-size="14.00" fill="#000000">TotalPipe </text>
</g>
<!-- SharedModule&#45;&gt;TotalPipe  -->
<g id="edge27" class="edge">
<title>SharedModule&#45;&gt;TotalPipe </title>
<path fill="none" stroke="#000000" stroke-dasharray="5,2" d="M1701.4369,-119C1736.7365,-119 1778,-119 1778,-119 1778,-119 1778,-143.7604 1778,-143.7604"/>
<polygon fill="#000000" stroke="#000000" points="1774.5001,-143.7604 1778,-153.7604 1781.5001,-143.7604 1774.5001,-143.7604"/>
</g>
<!-- LoginComponent -->
<g id="node12" class="node">
<title>LoginComponent</title>
<polygon fill="#ffffb3" stroke="#000000" points="956.2758,-122 841.7242,-122 841.7242,-86 956.2758,-86 956.2758,-122"/>
<text text-anchor="middle" x="899" y="-99.8" font-family="Times,serif" font-size="14.00" fill="#000000">LoginComponent</text>
</g>
<!-- LoginModule -->
<g id="node13" class="node">
<title>LoginModule</title>
<polygon fill="#8dd3c7" stroke="#000000" points="795.493,-190 792.493,-194 771.493,-194 768.493,-190 702.507,-190 702.507,-154 795.493,-154 795.493,-190"/>
<text text-anchor="middle" x="749" y="-167.8" font-family="Times,serif" font-size="14.00" fill="#000000">LoginModule</text>
</g>
<!-- LoginComponent&#45;&gt;LoginModule -->
<g id="edge10" class="edge">
<title>LoginComponent&#45;&gt;LoginModule</title>
<path fill="none" stroke="#000000" d="M899,-122.0225C899,-139.3734 899,-163 899,-163 899,-163 805.6387,-163 805.6387,-163"/>
<polygon fill="#000000" stroke="#000000" points="805.6387,-159.5001 795.6387,-163 805.6387,-166.5001 805.6387,-159.5001"/>
</g>
<!-- LoginModule&#45;&gt;UiModule -->
<g id="edge32" class="edge">
<title>LoginModule&#45;&gt;UiModule</title>
<path fill="none" stroke="#000000" d="M733.5012,-190.0439C733.5012,-202.5633 733.5012,-217 733.5012,-217 733.5012,-217 337.3868,-217 337.3868,-217 337.3868,-217 337.3868,-219.9672 337.3868,-219.9672"/>
<polygon fill="#000000" stroke="#000000" points="333.8868,-219.9671 337.3868,-229.9672 340.8868,-219.9672 333.8868,-219.9671"/>
</g>
<!-- LoginComponent  -->
<g id="node15" class="node">
<title>LoginComponent </title>
<polygon fill="#fb8072" stroke="#000000" points="808.2759,-266 689.7241,-266 689.7241,-230 808.2759,-230 808.2759,-266"/>
<text text-anchor="middle" x="749" y="-243.8" font-family="Times,serif" font-size="14.00" fill="#000000">LoginComponent </text>
</g>
<!-- LoginModule&#45;&gt;LoginComponent  -->
<g id="edge12" class="edge">
<title>LoginModule&#45;&gt;LoginComponent </title>
<path fill="none" stroke="#000000" stroke-dasharray="5,2" d="M764.4988,-190.0109C764.4988,-190.0109 764.4988,-219.855 764.4988,-219.855"/>
<polygon fill="#000000" stroke="#000000" points="760.9989,-219.8549 764.4988,-229.855 767.9989,-219.855 760.9989,-219.8549"/>
</g>
<!-- LoginRoutingModule -->
<g id="node14" class="node">
<title>LoginRoutingModule</title>
<polygon fill="#8dd3c7" stroke="#000000" points="818.1108,-122 815.1108,-126 794.1108,-126 791.1108,-122 679.8892,-122 679.8892,-86 818.1108,-86 818.1108,-122"/>
<text text-anchor="middle" x="749" y="-99.8" font-family="Times,serif" font-size="14.00" fill="#000000">LoginRoutingModule</text>
</g>
<!-- LoginRoutingModule&#45;&gt;LoginModule -->
<g id="edge11" class="edge">
<title>LoginRoutingModule&#45;&gt;LoginModule</title>
<path fill="none" stroke="#000000" d="M749,-122.2228C749,-122.2228 749,-143.7269 749,-143.7269"/>
<polygon fill="#000000" stroke="#000000" points="745.5001,-143.7269 749,-153.7269 752.5001,-143.727 745.5001,-143.7269"/>
</g>
<!-- PageNotFoundComponent -->
<g id="node16" class="node">
<title>PageNotFoundComponent</title>
<polygon fill="#ffffb3" stroke="#000000" points="3869.8243,-122 3704.1757,-122 3704.1757,-86 3869.8243,-86 3869.8243,-122"/>
<text text-anchor="middle" x="3787" y="-99.8" font-family="Times,serif" font-size="14.00" fill="#000000">PageNotFoundComponent</text>
</g>
<!-- PageNotFoundModule -->
<g id="node17" class="node">
<title>PageNotFoundModule</title>
<polygon fill="#8dd3c7" stroke="#000000" points="3757.5421,-190 3754.5421,-194 3733.5421,-194 3730.5421,-190 3614.4579,-190 3614.4579,-154 3757.5421,-154 3757.5421,-190"/>
<text text-anchor="middle" x="3686" y="-167.8" font-family="Times,serif" font-size="14.00" fill="#000000">PageNotFoundModule</text>
</g>
<!-- PageNotFoundComponent&#45;&gt;PageNotFoundModule -->
<g id="edge13" class="edge">
<title>PageNotFoundComponent&#45;&gt;PageNotFoundModule</title>
<path fill="none" stroke="#000000" d="M3731.0544,-122.2228C3731.0544,-122.2228 3731.0544,-143.7269 3731.0544,-143.7269"/>
<polygon fill="#000000" stroke="#000000" points="3727.5544,-143.7269 3731.0544,-153.7269 3734.5544,-143.727 3727.5544,-143.7269"/>
</g>
<!-- PageNotFoundRoutingModule -->
<g id="node18" class="node">
<title>PageNotFoundRoutingModule</title>
<polygon fill="#8dd3c7" stroke="#000000" points="3680.1595,-122 3677.1595,-126 3656.1595,-126 3653.1595,-122 3491.8405,-122 3491.8405,-86 3680.1595,-86 3680.1595,-122"/>
<text text-anchor="middle" x="3586" y="-99.8" font-family="Times,serif" font-size="14.00" fill="#000000">PageNotFoundRoutingModule</text>
</g>
<!-- PageNotFoundRoutingModule&#45;&gt;PageNotFoundModule -->
<g id="edge14" class="edge">
<title>PageNotFoundRoutingModule&#45;&gt;PageNotFoundModule</title>
<path fill="none" stroke="#000000" d="M3647.2795,-122.2228C3647.2795,-122.2228 3647.2795,-143.7269 3647.2795,-143.7269"/>
<polygon fill="#000000" stroke="#000000" points="3643.7795,-143.7269 3647.2795,-153.7269 3650.7795,-143.727 3643.7795,-143.7269"/>
</g>
<!-- ListePrestationsComponent -->
<g id="node19" class="node">
<title>ListePrestationsComponent</title>
<polygon fill="#ffffb3" stroke="#000000" points="3452.259,-122 3281.741,-122 3281.741,-86 3452.259,-86 3452.259,-122"/>
<text text-anchor="middle" x="3367" y="-99.8" font-family="Times,serif" font-size="14.00" fill="#000000">ListePrestationsComponent</text>
</g>
<!-- ListePrestationsComponent&#45;&gt;PrestationsModule -->
<g id="edge15" class="edge">
<title>ListePrestationsComponent&#45;&gt;PrestationsModule</title>
<path fill="none" stroke="#000000" d="M3367,-122.2921C3367,-144.2057 3367,-178 3367,-178 3367,-178 3107.5271,-178 3107.5271,-178"/>
<polygon fill="#000000" stroke="#000000" points="3107.5271,-174.5001 3097.5271,-178 3107.5271,-181.5001 3107.5271,-174.5001"/>
</g>
<!-- PrestationComponent -->
<g id="node20" class="node">
<title>PrestationComponent</title>
<polygon fill="#ffffb3" stroke="#000000" points="3263.8216,-122 3126.1784,-122 3126.1784,-86 3263.8216,-86 3263.8216,-122"/>
<text text-anchor="middle" x="3195" y="-99.8" font-family="Times,serif" font-size="14.00" fill="#000000">PrestationComponent</text>
</g>
<!-- PrestationComponent&#45;&gt;PrestationsModule -->
<g id="edge16" class="edge">
<title>PrestationComponent&#45;&gt;PrestationsModule</title>
<path fill="none" stroke="#000000" d="M3195,-122.2667C3195,-140.5552 3195,-166 3195,-166 3195,-166 3107.6351,-166 3107.6351,-166"/>
<polygon fill="#000000" stroke="#000000" points="3107.6351,-162.5001 3097.6351,-166 3107.635,-169.5001 3107.6351,-162.5001"/>
</g>
<!-- PrestationsComponent -->
<g id="node21" class="node">
<title>PrestationsComponent</title>
<polygon fill="#ffffb3" stroke="#000000" points="3108.266,-122 2965.734,-122 2965.734,-86 3108.266,-86 3108.266,-122"/>
<text text-anchor="middle" x="3037" y="-99.8" font-family="Times,serif" font-size="14.00" fill="#000000">PrestationsComponent</text>
</g>
<!-- PrestationsComponent&#45;&gt;PrestationsModule -->
<g id="edge17" class="edge">
<title>PrestationsComponent&#45;&gt;PrestationsModule</title>
<path fill="none" stroke="#000000" d="M3037,-122.2228C3037,-122.2228 3037,-143.7269 3037,-143.7269"/>
<polygon fill="#000000" stroke="#000000" points="3033.5001,-143.7269 3037,-153.7269 3040.5001,-143.727 3033.5001,-143.7269"/>
</g>
<!-- PrestationsRoutingModule -->
<g id="node23" class="node">
<title>PrestationsRoutingModule</title>
<polygon fill="#8dd3c7" stroke="#000000" points="2942.101,-122 2939.101,-126 2918.101,-126 2915.101,-122 2775.899,-122 2775.899,-86 2942.101,-86 2942.101,-122"/>
<text text-anchor="middle" x="2859" y="-99.8" font-family="Times,serif" font-size="14.00" fill="#000000">PrestationsRoutingModule</text>
</g>
<!-- PrestationsRoutingModule&#45;&gt;PrestationsModule -->
<g id="edge18" class="edge">
<title>PrestationsRoutingModule&#45;&gt;PrestationsModule</title>
<path fill="none" stroke="#000000" d="M2859,-122.2667C2859,-140.5552 2859,-166 2859,-166 2859,-166 2966.2403,-166 2966.2403,-166"/>
<polygon fill="#000000" stroke="#000000" points="2966.2404,-169.5001 2976.2403,-166 2966.2403,-162.5001 2966.2404,-169.5001"/>
</g>
<!-- AddRowComponent -->
<g id="node24" class="node">
<title>AddRowComponent</title>
<polygon fill="#ffffb3" stroke="#000000" points="2735.8823,-190 2604.1177,-190 2604.1177,-154 2735.8823,-154 2735.8823,-190"/>
<text text-anchor="middle" x="2670" y="-167.8" font-family="Times,serif" font-size="14.00" fill="#000000">AddRowComponent</text>
</g>
<!-- AddRowComponent&#45;&gt;SharedModule -->
<g id="edge20" class="edge">
<title>AddRowComponent&#45;&gt;SharedModule</title>
<path fill="none" stroke="#000000" d="M2670,-153.9092C2670,-130.8672 2670,-94 2670,-94 2670,-94 1711.4443,-94 1711.4443,-94"/>
<polygon fill="#000000" stroke="#000000" points="1711.4443,-90.5001 1701.4443,-94 1711.4443,-97.5001 1711.4443,-90.5001"/>
</g>
<!-- StateDirective -->
<g id="node25" class="node">
<title>StateDirective</title>
<polygon fill="#ffffb3" stroke="#000000" points="2586.0758,-190 2489.9242,-190 2489.9242,-154 2586.0758,-154 2586.0758,-190"/>
<text text-anchor="middle" x="2538" y="-167.8" font-family="Times,serif" font-size="14.00" fill="#000000">StateDirective</text>
</g>
<!-- StateDirective&#45;&gt;SharedModule -->
<g id="edge21" class="edge">
<title>StateDirective&#45;&gt;SharedModule</title>
<path fill="none" stroke="#000000" d="M2538,-153.8446C2538,-131.6481 2538,-97 2538,-97 2538,-97 1711.215,-97 1711.215,-97"/>
<polygon fill="#000000" stroke="#000000" points="1711.2151,-93.5001 1701.215,-97 1711.215,-100.5001 1711.2151,-93.5001"/>
</g>
<!-- TableauComponent -->
<g id="node26" class="node">
<title>TableauComponent</title>
<polygon fill="#ffffb3" stroke="#000000" points="2472.4201,-190 2345.5799,-190 2345.5799,-154 2472.4201,-154 2472.4201,-190"/>
<text text-anchor="middle" x="2409" y="-167.8" font-family="Times,serif" font-size="14.00" fill="#000000">TableauComponent</text>
</g>
<!-- TableauComponent&#45;&gt;SharedModule -->
<g id="edge22" class="edge">
<title>TableauComponent&#45;&gt;SharedModule</title>
<path fill="none" stroke="#000000" d="M2409,-153.7157C2409,-132.6789 2409,-101 2409,-101 2409,-101 1711.3769,-101 1711.3769,-101"/>
<polygon fill="#000000" stroke="#000000" points="1711.3769,-97.5001 1701.3769,-101 1711.3768,-104.5001 1711.3769,-97.5001"/>
</g>
<!-- TotalPipe -->
<g id="node27" class="node">
<title>TotalPipe</title>
<polygon fill="#ffffb3" stroke="#000000" points="2328.4376,-190 2257.5624,-190 2257.5624,-154 2328.4376,-154 2328.4376,-190"/>
<text text-anchor="middle" x="2293" y="-167.8" font-family="Times,serif" font-size="14.00" fill="#000000">TotalPipe</text>
</g>
<!-- TotalPipe&#45;&gt;SharedModule -->
<g id="edge23" class="edge">
<title>TotalPipe&#45;&gt;SharedModule</title>
<path fill="none" stroke="#000000" d="M2293,-153.7772C2293,-133.6348 2293,-104 2293,-104 2293,-104 1711.2338,-104 1711.2338,-104"/>
<polygon fill="#000000" stroke="#000000" points="1711.2339,-100.5001 1701.2338,-104 1711.2338,-107.5001 1711.2339,-100.5001"/>
</g>
<!-- FooterComponent -->
<g id="node32" class="node">
<title>FooterComponent</title>
<polygon fill="#ffffb3" stroke="#000000" points="639.8809,-190 522.1191,-190 522.1191,-154 639.8809,-154 639.8809,-190"/>
<text text-anchor="middle" x="581" y="-167.8" font-family="Times,serif" font-size="14.00" fill="#000000">FooterComponent</text>
</g>
<!-- FooterComponent&#45;&gt;UiModule -->
<g id="edge28" class="edge">
<title>FooterComponent&#45;&gt;UiModule</title>
<path fill="none" stroke="#000000" d="M579,-190.2434C579,-197.4297 579,-204 579,-204 579,-204 319,-204 319,-204 319,-204 319,-219.8495 319,-219.8495"/>
<polygon fill="#000000" stroke="#000000" points="315.5001,-219.8494 319,-229.8495 322.5001,-219.8495 315.5001,-219.8494"/>
</g>
<!-- HeaderComponent -->
<g id="node33" class="node">
<title>HeaderComponent</title>
<polygon fill="#ffffb3" stroke="#000000" points="503.7437,-190 382.2563,-190 382.2563,-154 503.7437,-154 503.7437,-190"/>
<text text-anchor="middle" x="443" y="-167.8" font-family="Times,serif" font-size="14.00" fill="#000000">HeaderComponent</text>
</g>
<!-- HeaderComponent&#45;&gt;UiModule -->
<g id="edge29" class="edge">
<title>HeaderComponent&#45;&gt;UiModule</title>
<path fill="none" stroke="#000000" d="M382.205,-172C374.3479,-172 368.9699,-172 368.9699,-172 368.9699,-172 368.9699,-248 368.9699,-248 368.9699,-248 365.5788,-248 365.5788,-248"/>
<polygon fill="#000000" stroke="#000000" points="365.5789,-244.5001 355.5788,-248 365.5788,-251.5001 365.5789,-244.5001"/>
</g>
<!-- NavComponent -->
<g id="node34" class="node">
<title>NavComponent</title>
<polygon fill="#ffffb3" stroke="#000000" points="364.1542,-190 259.8458,-190 259.8458,-154 364.1542,-154 364.1542,-190"/>
<text text-anchor="middle" x="312" y="-167.8" font-family="Times,serif" font-size="14.00" fill="#000000">NavComponent</text>
</g>
<!-- NavComponent&#45;&gt;UiModule -->
<g id="edge30" class="edge">
<title>NavComponent&#45;&gt;UiModule</title>
<path fill="none" stroke="#000000" d="M300.6133,-190.0109C300.6133,-190.0109 300.6133,-219.855 300.6133,-219.855"/>
<polygon fill="#000000" stroke="#000000" points="297.1133,-219.8549 300.6133,-229.855 304.1133,-219.855 297.1133,-219.8549"/>
</g>
<!-- UiComponent -->
<g id="node35" class="node">
<title>UiComponent</title>
<polygon fill="#ffffb3" stroke="#000000" points="241.8302,-190 146.1698,-190 146.1698,-154 241.8302,-154 241.8302,-190"/>
<text text-anchor="middle" x="194" y="-167.8" font-family="Times,serif" font-size="14.00" fill="#000000">UiComponent</text>
</g>
<!-- UiComponent&#45;&gt;UiModule -->
<g id="edge31" class="edge">
<title>UiComponent&#45;&gt;UiModule</title>
<path fill="none" stroke="#000000" d="M194,-190.0267C194,-210.7672 194,-242 194,-242 194,-242 272.172,-242 272.172,-242"/>
<polygon fill="#000000" stroke="#000000" points="272.172,-245.5001 282.172,-242 272.1719,-238.5001 272.172,-245.5001"/>
</g>
</g>
</svg>
